:SAMPLES-PER-SECOND 30
:FULLY-SPECIFIED
:DEGREES
277
root  -6.03735 34.6054 -20.639 179.732 86.4835 173.357
RightUpLeg  -10.3879 -13.1589 -6.23707
RightLeg  6.40264 0.10338 0.0060103
RightFoot  10.6915 0.0342274 0.167752
RightToes  -30.5769 -0.147914 -0.255956
Spine  -0.722917 2.39424 -1.16613
Spine1  -1.4752 4.86492 -1.63099
HEad  -38.0164 -8.11945 -4.67662
LeftShoulder1  -1.94126e-019 -3.10601e-018 -2.51263e-017
LeftArm  -12.294 16.1725 -78.1033
LeftForeArm  29.4234 -34.5095 -5.98778
LeftHand  -0.401895 -0.784399 7.67906
RightShoulder  -4.96962e-017 0 -2.36833e-017
RightArm  0.552687 -4.3845 80.3057
RightForeArm  46.2426 54.8912 12.0917
RightHand  -0.113975 0.424378 -2.33415
LeftUpLeg  -13.756 -4.41354 1.94359
LeftLeg  14.6987 12.3235 2.37733
LeftFoot  4.671 -0.0440699 1.20745
LeftToes  -15.4582 1.46665e-006 1.03344e-007
278
root  -5.93063 34.6111 -20.114 -178.061 85.8005 175.257
RightUpLeg  -11.4603 -14.3854 -5.1709
RightLeg  8.31276 0.328907 0.0277399
RightFoot  9.34693 0.0270604 0.200655
RightToes  -29.1063 -0.137816 -0.245707
Spine  -0.847384 2.36729 -1.0009
Spine1  -1.70743 4.80442 -1.29839
HEad  -38.5056 -7.36058 -3.3908
LeftShoulder1  -1.94126e-019 -3.10601e-018 -2.51263e-017
LeftArm  -12.6282 17.4165 -78.8858
LeftForeArm  27.4106 -37.4491 -6.89823
LeftHand  -0.403104 -0.204584 8.44727
RightShoulder  -4.96962e-017 0 -2.36833e-017
RightArm  0.959762 -4.81392 79.7521
RightForeArm  45.791 55.9025 12.6693
RightHand  -0.111865 0.469822 -2.27867
LeftUpLeg  -13.7625 -4.75205 2.89829
LeftLeg  14.0729 12.0434 2.18917
LeftFoot  5.30064 -0.0534698 1.31662
LeftToes  -16.93 1.46665e-006 1.03344e-007
279
root  -5.7479 34.5829 -19.5399 -174.339 84.6347 179.401
RightUpLeg  -11.4382 -14.5323 -4.2092
RightLeg  10.1654 -0.493038 -0.0550097
RightFoot  7.75663 0.0302096 0.0892379
RightToes  -28.6186 -0.134525 -0.242251
Spine  -0.756579 2.14615 -0.751862
Spine1  -1.52005 4.37398 -0.796232
HEad  -38.4558 -6.99705 -1.70998
LeftShoulder1  -1.94126e-019 -3.10601e-018 -2.51263e-017
LeftArm  -11.3147 18.4746 -79.1231
LeftForeArm  26.2041 -39.1572 -7.46261
LeftHand  -0.396715 -0.328016 8.14551
RightShoulder  -4.96962e-017 0 -2.36833e-017
RightArm  0.874951 -4.83633 79.508
RightForeArm  45.6671 56.4891 13.0041
RightHand  -0.120115 0.0990616 -2.56777
LeftUpLeg  -13.1233 -5.35738 4.14877
LeftLeg  13.6125 11.4536 1.98926
LeftFoot  5.71954 -0.0590882 1.34436
LeftToes  -19.1426 1.46665e-006 1.03344e-007
280
root  -5.51752 34.58 -18.9968 -172 83.1273 -177.475
RightUpLeg  -10.3055 -14.0302 -3.28095
RightLeg  10.7636 -2.37327 -0.29358
RightFoot  6.53822 0.0367941 -0.100718
RightToes  -27.0133 -0.123904 -0.230681
Spine  -0.589854 1.77541 -0.486282
Spine1  -1.18725 3.64734 -0.260272
HEad  -37.7194 -6.98343 -0.0812835
LeftShoulder1  -1.94126e-019 -3.10601e-018 -2.51263e-017
LeftArm  -9.25936 19.0872 -79.0965
LeftForeArm  27.1912 -39.0297 -7.35863
LeftHand  -0.388632 -1.17713 7.01634
RightShoulder  -4.96962e-017 0 -2.36833e-017
RightArm  0.00356876 -4.90814 79.6465
RightForeArm  46.0275 56.6583 13.065
RightHand  -0.112082 0.292516 -2.33556
LeftUpLeg  -12.0761 -6.88994 5.42734
LeftLeg  13.0006 11.3922 1.85462
LeftFoot  6.35357 -0.0724156 1.46623
LeftToes  -21.3123 1.46665e-006 1.03344e-007
281
root  -5.33411 34.5834 -18.4845 -170.069 81.3264 -175.249
RightUpLeg  -9.26875 -12.7936 -2.12409
RightLeg  10.385 -5.37522 -0.628926
RightFoot  5.69747 0.0452713 -0.351534
RightToes  -25.0144 -0.111139 -0.215866
Spine  -0.627957 1.30154 -0.245148
Spine1  -1.25416 2.68826 0.234936
HEad  -36.5095 -7.41258 1.33536
LeftShoulder1  -1.94126e-019 -3.10601e-018 -2.51263e-017
LeftArm  -7.53426 19.7053 -79.074
LeftForeArm  30.2572 -37.871 -6.83581
LeftHand  -0.385595 -2.25487 6.0585
RightShoulder  -4.96962e-017 0 -2.36833e-017
RightArm  -1.50761 -5.65369 79.8758
RightForeArm  46.6033 57.3869 13.4427
RightHand  -0.132936 0.0858472 -2.84599
LeftUpLeg  -11.9515 -8.12463 6.74441
LeftLeg  12.8464 10.8216 1.73315
LeftFoot  6.88371 -0.080498 1.49991
LeftToes  -22.862 1.46665e-006 1.03344e-007
282
root  -5.18354 34.5893 -18.0103 -168.359 79.5185 -173.29
RightUpLeg  -8.1438 -12.9435 -0.895554
RightLeg  9.43307 -6.97812 -0.698588
RightFoot  5.29017 0.0471685 -0.454992
RightToes  -23.8492 -0.103939 -0.207027
Spine  -0.669136 0.915075 0.0627179
Spine1  -1.32991 1.90355 0.86493
HEad  -35.7059 -8.33584 2.30275
LeftShoulder1  -1.94126e-019 -3.10601e-018 -2.51263e-017
LeftArm  -6.88334 20.2144 -79.5231
LeftForeArm  32.2151 -35.5831 -6.0974
LeftHand  -0.382599 -2.68945 5.71993
RightShoulder  -4.96962e-017 0 -2.36833e-017
RightArm  -3.03817 -6.97572 79.5519
RightForeArm  46.9013 58.9348 14.3859
RightHand  -0.139699 -0.0873645 -3.06881
LeftUpLeg  -12.0468 -8.50986 8.05282
LeftLeg  12.7632 9.52089 1.51269
LeftFoot  7.36218 -0.0806876 1.41566
LeftToes  -24.2263 1.46665e-006 1.03344e-007
283
root  -5.05657 34.5872 -17.5619 -166.496 78.3327 -171.107
RightUpLeg  -7.10467 -14.6341 0.30793
RightLeg  8.3772 -6.38042 -0.520643
RightFoot  5.04975 0.0412806 -0.373976
RightToes  -22.8404 -0.0978525 -0.199259
Spine  -0.634182 0.78774 0.422263
Spine1  -1.25743 1.64755 1.58983
HEad  -35.707 -9.45215 3.01644
LeftShoulder1  -1.94126e-019 -3.10601e-018 -2.51263e-017
LeftArm  -7.89791 20.6997 -80.4246
LeftForeArm  31.8961 -32.4045 -5.31138
LeftHand  -0.395983 -2.5116 6.03273
RightShoulder  -4.96962e-017 0 -2.36833e-017
RightArm  -4.29456 -8.53568 78.5881
RightForeArm  47.2772 61.0066 15.8076
RightHand  -0.142355 -0.287026 -3.22702
LeftUpLeg  -11.989 -8.03388 9.32816
LeftLeg  12.6527 8.04333 1.26359
LeftFoot  7.68586 -0.074068 1.26416
LeftToes  -25.2518 1.46665e-006 1.03344e-007
284
root  -4.98193 34.5693 -17.1151 -165.005 77.9743 -169.407
RightUpLeg  -6.68627 -15.4663 1.38745
RightLeg  7.92578 -5.85757 -0.431749
RightFoot  4.67396 0.0349233 -0.289064
RightToes  -21.8394 -0.0919483 -0.191445
Spine  -0.590339 0.856873 0.689884
Spine1  -1.16908 1.79523 2.11872
HEad  -36.3172 -10.3343 3.77102
LeftShoulder1  -1.94126e-019 -3.10601e-018 -2.51263e-017
LeftArm  -10.5244 21.4257 -81.2118
LeftForeArm  30.3318 -29.1427 -4.62795
LeftHand  -0.38091 -1.93328 6.22565
RightShoulder  -4.96962e-017 0 -2.36833e-017
RightArm  -5.26967 -10.0862 77.4813
RightForeArm  48.061 62.841 17.2045
RightHand  -0.142973 -0.25768 -3.25379
LeftUpLeg  -11.9945 -7.28122 10.4177
LeftLeg  12.7057 7.09406 1.1218
LeftFoot  8.05555 -0.0704029 1.17998
LeftToes  -26.5987 1.46665e-006 1.03344e-007
